# xmcd CD database file
#
# Track frame offsets:
#	150
#	9769
#	24955
#	37501
#	49593
#	66588
#	78730
#	91472
#	102681
#	114102
#	126686
#	140383
#	153821
#	163100
#	173687
#	186565
#	197654
#	212257
#	221602
#	230236
#	242472
#	256095
#	268097
#	282009
#	293368
#	300590
#
# Disc length: 4106 seconds
#
# Revision: 0
# Processed by: cddbd v1.5.2PL0 Copyright (c) Steve Scherf et al.
# Submitted via: CDex 1.79
#
DISCID=6210081a
DTITLE=Jonah Jones - Jonah Jones Masterworks. Jonah Jones - Glen Gray - That Righteous Feelin'
DYEAR=1960
DGENRE=Jazz
TTITLE0=Baubles, Bangles and Beads
TTITLE1=Echoes of Harlem
TTITLE2=Two O'clock Jump
TTITLE3=I Can't Get Started
TTITLE4=Boy Meets Horn
TTITLE5=Hot Lips
TTITLE6=After You've Gone
TTITLE7=West End Blues
TTITLE8=Ciribiribin	
TTITLE9=Tenderly
TTITLE10=Sugar Blues	
TTITLE11=Apollo Jumps	
TTITLE12=Yes Indeed!
TTITLE13=Mandy
TTITLE14=Work Song
TTITLE15=Ramblin' Rose
TTITLE16=Spanish Harlem
TTITLE17=The Lonesome Road
TTITLE18=The Preacher	
TTITLE19='Deed I Do	
TTITLE20=Memories Are Made of This
TTITLE21=Jonah's Sermon
TTITLE22=Look Up
TTITLE23=Down by the Riverside
TTITLE24=Sometimes I'm Happy
TTITLE25=Tommy Tommy
EXTD=YEAR: 1960
EXTT0=
EXTT1=
EXTT2=
EXTT3=
EXTT4=
EXTT5=
EXTT6=
EXTT7=
EXTT8=
EXTT9=
EXTT10=
EXTT11=
EXTT12=
EXTT13=
EXTT14=
EXTT15=
EXTT16=
EXTT17=
EXTT18=
EXTT19=
EXTT20=
EXTT21=
EXTT22=
EXTT23=
EXTT24=
EXTT25=
PLAYORDER=
